HIERARCHY
ROOT Pelvis
{
	OFFSET 0.000000 0.000000 0.000000
	CHANNELS 6 Xposition Yposition Zposition Zrotation Yrotation Xrotation 
	JOINT Left_hip
	{
		OFFSET 0.068973 -0.091024 -0.007589
		CHANNELS 3 Zrotation Yrotation Xrotation
		JOINT Left_knee
		{
			OFFSET 0.036482 -0.391037 -0.003979
			CHANNELS 3 Zrotation Yrotation Xrotation
			JOINT Left_ankle
			{
				OFFSET -0.012239 -0.415469 -0.043440
				CHANNELS 3 Zrotation Yrotation Xrotation
				JOINT Left_foot
				{
					OFFSET 0.023806 -0.058558 0.118702
					CHANNELS 3 Zrotation Yrotation Xrotation
					End Site
					{
						OFFSET 0.000000 0.000000 0.000000
					}
				}
			}
		}
	}
	JOINT Right_hip
	{
		OFFSET -0.066552 -0.090468 -0.003847
		CHANNELS 3 Zrotation Yrotation Xrotation
		JOINT Right_knee
		{
			OFFSET -0.042435 -0.398340 -0.006400
			CHANNELS 3 Zrotation Yrotation Xrotation
			JOINT Right_ankle
			{
				OFFSET 0.014931 -0.415421 -0.041327
				CHANNELS 3 Zrotation Yrotation Xrotation
				JOINT Right_foot
				{
					OFFSET -0.021472 -0.049410 0.121889
					CHANNELS 3 Zrotation Yrotation Xrotation
					End Site
					{
						OFFSET 0.000000 0.000000 0.000000
					}
				}
			}
		}
	}
	JOINT Spine1
	{
		OFFSET -0.002904 0.105700 -0.022855
		CHANNELS 3 Zrotation Yrotation Xrotation
		JOINT Spine2
		{
			OFFSET 0.004179 0.132554 -0.002501
			CHANNELS 3 Zrotation Yrotation Xrotation
			JOINT Spine3
			{
				OFFSET 0.001987 0.049603 0.025988
				CHANNELS 3 Zrotation Yrotation Xrotation
				JOINT Neck
				{
					OFFSET -0.003935 0.211336 -0.045638
					CHANNELS 3 Zrotation Yrotation Xrotation
					JOINT Head
					{
						OFFSET 0.003906 0.065991 0.051018
						CHANNELS 3 Zrotation Yrotation Xrotation
						End Site
						{
							OFFSET 0.000000 0.000000 0.000000
						}
					}
				}
				JOINT Left_collar
				{
					OFFSET 0.072882 0.117751 -0.036270
					CHANNELS 3 Zrotation Yrotation Xrotation
					JOINT Left_shoulder
					{
						OFFSET 0.082118 0.032630 -0.005771
						CHANNELS 3 Zrotation Yrotation Xrotation
						JOINT Left_elbow
						{
							OFFSET 0.263305 -0.015144 -0.028095
							CHANNELS 3 Zrotation Yrotation Xrotation
							JOINT Left_wrist
							{
								OFFSET 0.250741 0.010115 -0.000759
								CHANNELS 3 Zrotation Yrotation Xrotation
								JOINT Left_palm
								{
									OFFSET 0.080683 -0.009989 -0.013613
									CHANNELS 3 Zrotation Yrotation Xrotation
									End Site
									{
										OFFSET 0.000000 0.000000 0.000000
									}
								}
							}
						}
					}
				}
				JOINT Right_collar
				{
					OFFSET -0.074811 0.116132 -0.040385
					CHANNELS 3 Zrotation Yrotation Xrotation
					JOINT Right_shoulder
					{
						OFFSET -0.085089 0.032943 -0.007484
						CHANNELS 3 Zrotation Yrotation Xrotation
						JOINT Right_elbow
						{
							OFFSET -0.254763 -0.014219 -0.020321
							CHANNELS 3 Zrotation Yrotation Xrotation
							JOINT Right_wrist
							{
								OFFSET -0.256597 0.009233 -0.005063
								CHANNELS 3 Zrotation Yrotation Xrotation
								JOINT Right_palm
								{
									OFFSET -0.080528 -0.007219 -0.010379
									CHANNELS 3 Zrotation Yrotation Xrotation
									End Site
									{
										OFFSET 0.000000 0.000000 0.000000
									}
								}
							}
						}
					}
				}
			}
		}
	}
}
MOTION
Frames: 13
Frame Time: 0.100000
0.000000 0.000000 0.000000 175.363490 25.481476 -21.321888 8.258247 10.086007 20.008014 -2.274735 4.229508 -8.808462 -0.305300 11.225038 5.187015 -0.458196 7.322886 -5.272403 -1.507632 -8.132501 16.092513 4.633981 -3.649681 -5.375100 -2.723202 -9.845555 -1.277582 2.670995 1.068543 5.403992 2.401727 0.286978 0.645553 -0.326413 -3.538786 10.587182 0.327769 -1.797701 1.395010 -1.470648 0.298255 4.600782 -0.348112 1.825021 -3.235347 -23.460768 -4.958853 9.226146 -50.354765 -4.044236 8.160717 -2.826525 -25.081090 23.810434 -8.967704 -0.351864 0.611287 -9.583043 -4.800874 -13.592850 22.205661 8.223571 8.403167 51.221496 4.765286 12.133302 -3.025352 27.587783 10.230788 5.278237 -0.522006 0.759977 13.405197 8.281622 -8.028392 
0.000366 -0.000103 0.001893 175.162718 26.153360 -21.755477 8.461994 9.957292 20.289617 -2.200991 3.735366 -8.701165 -0.510558 11.275191 5.062819 -0.276091 7.140108 -5.373363 -1.529177 -8.389598 16.533203 4.681873 -3.669432 -5.187867 -2.814967 -10.123436 -1.446737 2.752652 1.019870 5.259263 2.233569 0.494869 0.516821 -0.399324 -3.239577 10.711189 0.269815 -1.643086 1.671072 -1.424974 0.103941 4.712337 -0.400717 1.556069 -3.213116 -23.412184 -3.768765 9.263416 -50.298756 -3.057457 7.855110 -2.647241 -23.916043 23.678436 -9.189390 -0.262825 0.318257 -9.418507 -4.774269 -13.625678 22.424064 7.568403 8.464091 51.110722 4.277785 11.906122 -2.921418 25.831554 10.121537 5.329431 -0.724060 0.945508 13.345942 8.211928 -7.974910 
0.002343 -0.000287 0.003553 174.913437 27.477693 -22.208104 8.641277 9.589198 20.187413 -2.154965 3.132109 -8.266314 -0.670567 11.077948 5.050783 -0.344643 6.967551 -5.465581 -1.516561 -8.785040 17.099552 4.710056 -4.018021 -5.297917 -2.933477 -10.531157 -1.527652 2.863946 1.037559 5.169635 1.871679 0.819525 0.569013 -0.469516 -2.961682 10.730758 0.294119 -1.460597 1.874693 -1.477212 0.030747 4.927039 -0.194551 1.452519 -3.095193 -23.040551 -3.067948 9.234929 -49.943730 -2.920113 7.626497 -2.396100 -24.577735 23.495189 -9.113619 -0.365882 -0.392950 -9.057932 -4.672447 -13.085929 22.561395 7.079084 8.684504 51.294505 3.474284 11.762036 -2.675220 24.198680 10.265223 5.675868 -1.032082 0.972051 13.044707 8.098445 -7.724201 
0.006013 -0.000163 0.005329 174.663109 28.956489 -22.568533 8.856551 8.970981 20.191379 -2.113671 2.192107 -8.371366 -1.046696 10.855182 5.248938 -0.133966 6.890630 -5.619465 -1.359915 -9.130845 17.157438 4.705900 -4.559409 -4.713594 -3.226412 -11.121499 -2.069000 3.063453 1.165409 5.237490 1.479240 1.008398 0.616255 -0.591290 -2.806551 10.794265 0.282105 -1.406998 1.983122 -1.586094 0.227086 5.022954 -0.108730 1.341386 -2.926468 -22.707303 -2.887283 9.161427 -49.409863 -3.223933 7.528383 -2.123111 -26.206320 23.167526 -8.775910 -0.568416 -1.084585 -8.667303 -4.541276 -12.474835 22.680188 6.946117 8.831248 51.375333 2.959287 11.808662 -2.485923 23.873156 10.579943 5.847372 -1.085646 1.025137 12.628535 7.948190 -7.403252 
0.014205 -0.000093 0.006772 174.351353 30.564268 -23.210644 9.125264 8.195753 19.910443 -1.836994 1.300633 -7.879796 -1.436157 10.646896 5.428836 -0.050623 6.862150 -5.541395 -0.958226 -9.425574 16.800549 4.617704 -5.596064 -3.156377 -3.938092 -11.640904 -2.679049 3.978544 0.976528 5.612364 0.713696 1.108879 1.339301 -0.589895 -2.650881 10.820390 0.508297 -1.424222 1.880660 -1.360826 0.101987 5.645641 0.001891 0.819314 -2.285147 -22.299297 -2.814534 9.269404 -49.081423 -3.602786 7.411946 -1.130197 -28.725753 21.855750 -8.495243 -0.974798 -2.781180 -7.707141 -4.188106 -11.471463 22.917332 7.748141 8.752813 50.664706 4.088041 11.633096 -2.259837 23.160312 9.734780 6.040000 -1.185810 0.474899 11.718448 7.551806 -6.701914 
0.026121 -0.000175 0.003687 174.259329 32.004436 -23.485959 9.001790 7.579578 17.277541 -1.380731 1.180066 -4.358957 -1.104034 10.047546 5.230848 -1.004701 7.322936 -5.153151 -0.618587 -9.981193 16.313571 4.554274 -6.737977 -2.755066 -4.982286 -11.417408 -2.395955 5.582822 0.303931 6.471189 0.163171 1.885483 3.028734 -0.632662 -2.124246 10.563345 0.693857 -0.860180 1.469948 -0.532532 -0.748882 6.942652 0.322024 -0.247504 -1.006444 -22.183639 -3.172644 9.221429 -48.309324 -4.033603 7.361151 -0.191729 -30.632534 20.537871 -8.645744 -0.942056 -3.654857 -7.032703 -4.040598 -10.718858 23.267204 10.041893 8.308893 49.475383 7.850310 10.922742 -2.982448 21.965665 7.710906 5.835789 -1.594533 0.634646 11.203564 7.440606 -6.093722 
0.039232 0.001437 -0.007607 174.112532 34.969205 -23.151492 7.696629 5.926153 11.703719 -0.486579 0.826926 1.708791 -0.903418 9.273655 5.060760 -1.434523 8.208978 -5.313584 -0.346436 -10.536814 15.168755 4.345941 -8.442641 -3.306043 -5.522867 -11.773713 -1.742591 5.794826 -0.240407 7.178095 0.562372 3.167573 6.133807 -0.999271 -1.420078 9.989319 0.770928 0.045958 1.093987 -0.011519 -2.409209 5.827959 1.150972 -1.903202 -1.339047 -22.313769 -4.093850 8.610940 -48.036612 -4.357033 7.547014 0.997188 -32.838948 18.896098 -8.328031 -0.833599 -3.882603 -6.709170 -4.064258 -10.178564 22.877408 12.902089 7.601222 48.589692 11.404287 10.131622 -4.667031 24.052399 5.062066 4.580826 -1.304429 0.754549 10.829231 7.494916 -5.633242 
0.053580 0.004236 -0.026346 173.456978 41.248986 -22.130888 6.078461 4.532510 6.001824 -0.704414 -0.598553 3.730146 -2.295652 7.208002 6.442346 -0.416937 8.922140 -5.534243 -0.519562 -10.817094 11.980218 4.185118 -11.471362 -2.791701 -5.878128 -13.531085 -1.437345 5.033276 -0.280644 7.621565 1.841434 3.506083 10.417744 -1.547823 -1.119790 9.490909 0.775436 0.540171 0.548778 -0.007568 -4.841271 1.199757 2.268654 -4.571437 -4.407471 -22.956251 -5.728671 7.982129 -48.621339 -4.288548 7.872884 1.941355 -33.079748 17.011584 -7.590149 -0.990713 -3.859522 -6.048757 -3.922724 -10.280716 21.832524 16.138846 6.730390 47.097912 13.964625 9.112756 -6.378350 27.133276 2.223150 3.048825 -0.373181 1.037901 9.791206 7.297357 -5.099938 
0.061102 0.005704 -0.037614 172.645151 47.310692 -21.400687 5.646844 3.753538 2.832388 -2.353268 -2.419736 2.953343 -4.594479 4.698516 8.359095 1.154440 8.961028 -5.446150 -1.251255 -11.108097 11.157843 4.982606 -12.898447 -5.147646 -6.644301 -15.777853 -0.808587 4.287174 0.227491 8.512085 2.992977 3.783361 11.678547 -1.608851 -1.156771 9.894693 0.973253 0.954832 -0.031331 0.501748 -8.059693 -2.137474 3.690183 -7.710793 -6.875633 -23.426994 -7.782633 8.466432 -49.304459 -2.799379 9.074363 -0.318007 -29.547424 19.521027 -8.371860 -1.442459 -3.077876 -5.565419 -3.726725 -11.521633 20.419528 20.135271 6.723909 43.622740 16.215385 8.341536 -4.222341 26.979593 4.144378 2.830906 0.240755 2.858160 8.865604 7.016960 -5.120062 
0.060037 0.006433 -0.036856 171.986796 46.786287 -25.751070 7.198721 6.189336 12.005721 -1.606563 -4.824502 -5.695119 -14.368662 8.353384 8.670797 14.486489 5.416156 -3.893159 -1.786734 -12.040543 17.392066 5.400110 -13.019101 -8.098071 2.492450 -16.367318 -1.224217 -6.732799 2.255532 2.675759 3.817948 4.086268 11.372843 -1.611045 -1.854644 14.363324 1.960599 2.150129 -0.906920 0.482593 -8.612531 -2.320012 5.533457 -8.805513 -10.717087 -24.501323 -11.865102 8.783951 -49.617212 6.001565 11.909087 -5.044030 -27.607066 25.336185 3.882575 -5.575418 12.079719 -7.669905 -5.373513 -20.989111 16.940802 25.645603 6.526767 37.691778 17.509962 5.439031 -2.550732 38.690196 11.959387 -9.086926 7.955632 17.378011 9.711429 7.459108 -9.690346 
0.056738 0.005560 -0.032241 172.328404 44.726202 -26.475163 7.452565 7.239812 14.476215 -0.793187 -3.694643 -6.916302 -14.956077 8.802415 8.037633 17.003472 5.895780 -3.976576 -1.664584 -11.864491 18.741314 5.224639 -12.228405 -8.135979 3.536308 -16.298438 -0.988983 -8.336581 1.625219 1.943484 3.645312 4.319187 8.537614 -1.239023 -2.525269 14.497129 1.613446 2.004075 -0.714813 3.246710 -7.439134 0.319674 3.835226 -7.882208 -8.430992 -23.326461 -10.033017 9.045630 -50.735816 11.965152 12.867398 -11.006830 -28.639858 36.615590 3.158945 -6.637702 17.806131 -11.020406 -7.440652 -27.113813 11.893536 24.663617 2.117884 34.731745 23.116194 4.002655 -13.088579 61.696562 8.139593 -13.801826 11.725401 19.836922 13.299790 9.082059 -12.092807 
0.056314 0.003191 -0.037646 174.156762 42.246584 -26.492475 6.715477 7.380593 13.319586 -0.881718 -2.172296 -1.386264 -13.963435 8.339001 7.366521 17.067379 6.710796 -4.986385 -3.028568 -12.091424 20.260275 4.900174 -10.816239 -8.917849 4.604927 -15.368334 0.949420 -9.782686 0.699988 1.058127 4.265669 5.203249 7.404904 -1.392106 -2.719892 14.980188 0.989482 2.504006 -0.099111 4.565396 -8.131315 5.608547 2.799357 -6.292860 -4.834191 -21.601578 -10.045652 9.038652 -53.323039 14.303885 14.057226 -15.372249 -31.243014 45.028873 3.663775 -7.612561 17.657183 -14.098188 -9.334119 -29.451773 5.804497 25.090514 -1.909055 28.761156 30.085989 -1.843455 -52.213713 74.114592 -27.048045 -18.712538 15.051841 23.587843 16.494511 11.017851 -13.986072 
0.057361 0.003686 -0.053450 176.017306 39.740971 -26.835284 5.999273 6.817789 13.677589 -1.184171 -3.107314 1.314175 -13.607012 7.663332 7.171177 16.989779 8.193181 -6.495328 -4.723365 -11.274681 20.500880 4.626262 -9.282362 -7.969489 4.588842 -14.781232 2.022241 -9.330390 0.298465 1.357671 5.737133 4.919322 7.895736 -1.355034 -2.401451 16.404149 0.560485 2.777437 0.696087 4.997968 -8.595607 13.571575 0.385385 -4.767806 2.022911 -20.526657 -10.760025 9.682858 -55.659715 14.385250 16.809299 -20.876075 -36.552406 54.769765 2.641329 -8.477627 15.940536 -15.310497 -9.614117 -30.766128 1.574672 27.247462 -3.992824 21.361443 36.685272 -8.866555 -74.960830 70.767249 -51.840792 -22.234421 15.566868 23.079723 18.009730 11.528544 -15.542911 
